<svg width="8" height="8" viewBox="0 0 8 8" fill="none" xmlns="http://www.w3.org/2000/svg">
<path d="M7.9375 0.5V6.1875C7.9375 6.30353 7.89141 6.41481 7.80936 6.49686C7.72731 6.57891 7.61603 6.625 7.5 6.625C7.38397 6.625 7.27269 6.57891 7.19064 6.49686C7.10859 6.41481 7.0625 6.30353 7.0625 6.1875V1.55602L0.809531 7.80953C0.727438 7.89162 0.616096 7.93774 0.499999 7.93774C0.383902 7.93774 0.272561 7.89162 0.190468 7.80953C0.108375 7.72744 0.0622559 7.6161 0.0622559 7.5C0.0622559 7.3839 0.108375 7.27256 0.190468 7.19047L6.44398 0.9375H1.8125C1.69647 0.9375 1.58519 0.891406 1.50314 0.809359C1.42109 0.727312 1.375 0.616032 1.375 0.5C1.375 0.383968 1.42109 0.272688 1.50314 0.190641C1.58519 0.108594 1.69647 0.0625 1.8125 0.0625H7.5C7.61603 0.0625 7.72731 0.108594 7.80936 0.190641C7.89141 0.272688 7.9375 0.383968 7.9375 0.5Z" fill="white"/>
</svg>
